<?xml version="1.0" standalone="no"?><!DOCTYPE svg PUBLIC "-//W3C//DTD SVG 1.1//EN" "http://www.w3.org/Graphics/SVG/1.1/DTD/svg11.dtd"><svg t="1741860809555" class="icon" viewBox="0 0 1024 1024" version="1.1" xmlns="http://www.w3.org/2000/svg" p-id="948" xmlns:xlink="http://www.w3.org/1999/xlink" width="128" height="128"><path d="M896 64a76.8 76.8 0 0 1 76.8 76.8v588.8a76.8 76.8 0 0 1-76.8 76.8H128a76.8 76.8 0 0 1-76.8-76.8V140.8a76.8 76.8 0 0 1 76.8-76.8h768z m-89.2928 208.4608a38.4 38.4 0 0 0-52.5568 0.6912l-1.6896 1.7408L581.76 461.568 480.5632 299.648l-1.3568-2.0224a38.4 38.4 0 0 0-57.856-5.2864l-1.6896 1.7536-204.8 224-1.5872 1.8432a38.4 38.4 0 0 0 2.2016 50.6368l1.8176 1.7664 1.8432 1.5872a38.4 38.4 0 0 0 50.6368-2.2016l1.7664-1.8176L442.24 383.2064l101.2096 161.9456 1.3568 2.0224a38.4 38.4 0 0 0 57.856 5.2864l1.6896-1.7536 204.8-224 1.5872-1.8432a38.4 38.4 0 0 0-4.0192-52.4032z" fill="#6B57FE" p-id="949"></path><path d="M819.2 883.2a38.4 38.4 0 0 1 2.2528 76.736L819.2 960H204.8a38.4 38.4 0 0 1-2.2528-76.736L204.8 883.2h614.4z" fill="#FFBA00" p-id="950"></path></svg>