<?xml version="1.0" standalone="no"?><!DOCTYPE svg PUBLIC "-//W3C//DTD SVG 1.1//EN" "http://www.w3.org/Graphics/SVG/1.1/DTD/svg11.dtd"><svg t="1743150256687" class="icon" viewBox="0 0 1024 1024" version="1.1" xmlns="http://www.w3.org/2000/svg" p-id="2400" xmlns:xlink="http://www.w3.org/1999/xlink" width="128" height="128"><path d="M390.382933 644.778667c-61.303467 37.034667-70.382933-20.770133-70.382933-20.770134l-76.8-194.1504c-29.559467-92.279467 25.565867-41.591467 25.565867-41.591466s47.3088 38.741333 83.217066 62.378666c35.874133 23.6544 76.8 6.929067 76.8 6.929067l502.1696-251.050667C838.280533 81.664 685.226667 0 511.965867 0 229.205333 0 0 217.2928 0 485.376c0 154.146133 75.8784 291.3792 194.116267 380.330667l-21.333334 132.744533s-10.376533 38.775467 25.634134 20.7872c24.576-12.270933 87.108267-56.183467 124.347733-82.8928A535.159467 535.159467 0 0 0 512 970.666667c282.760533 0 512-217.2928 512-485.376 0-77.6192-19.319467-150.9376-53.5552-216.0128-159.982933 104.2432-532.138667 346.589867-580.061867 375.466666v0.0512z" fill="#22AC38" p-id="2401"></path></svg>